<svg width="334" height="410" viewBox="0 0 334 410" fill="none" xmlns="http://www.w3.org/2000/svg">
<path d="M74.39 166.58C79.88 165.71 85.47 166.21 91.01 166.13C143.34 166.11 195.67 166.191 248.01 166.09C253.67 166.191 260.11 165.34 264.869 169.13C269.96 172.99 271.46 180.25 269.019 186.05C240.61 256.67 212.5 327.43 184.12 398.07C179.95 410.3 162.439 412.97 153.62 404.37C149.63 400.11 148.24 394.24 145.97 389.02C120.4 324.95 94.73 260.919 69.13 196.86C67.24 191.94 64.71 187.2 63.74 181.97C62.51 175.12 67.46 167.75 74.39 166.58Z" fill="#CF867D"/>
<path d="M332.05 131.02C328.59 111.49 316.71 93.73 300.18 82.839C282.97 71.27 260.829 67.869 240.8 72.959C240.15 53.1 231.67 33.529 216.88 20.14C195.26 -0.291014 160.779 -5.34001 134.27 8.22999C109.87 19.94 93.46 45.93 93 72.96C62.26 64.58 27.26 78.63 11.189 106.2C-7.44099 135.57 -0.950991 177.88 26.049 199.94C30.869 203.64 36.979 205.36 43.019 205.41C49.483 205.407 55.948 205.409 62.413 205.406C60.547 200.74 58.679 196.075 56.813 191.408C54.685 185.868 51.836 180.531 50.744 174.642C49.358 166.928 54.932 158.629 62.735 157.312C68.917 156.332 75.212 156.895 81.45 156.805C140.375 156.783 199.3 156.873 258.237 156.76C264.61 156.873 271.861 155.916 277.221 160.183C282.953 164.53 284.642 172.704 281.894 179.235C278.388 187.95 274.899 196.672 271.4 205.39C277.613 205.39 283.826 205.391 290.039 205.39C297.069 205.48 304.25 203.32 309.519 198.53C327.98 181.9 336.71 155.39 332.05 131.02Z" fill="#FFEFED"/>
</svg>
